<svg xmlns="http://www.w3.org/2000/svg" viewBox="0 0 32 32" xml:space="preserve" id="Lotus--Streamline-Twemoji" height="32" width="32">
  <desc>
    Lotus Streamline Emoji: https://streamlinehq.com
  </desc>
  <path fill="#ef8294" d="M13.622133333333332 16.933777777777777c-2.3656 0 -4.282933333333333 -2.4746666666666663 -4.282933333333333 -6.160977777777777 0 -3.7673777777777775 1.775111111111111 -5.470933333333333 2.526133333333333 -6.023111111111111 0.18044444444444444 -0.13244444444444442 0.4318222222222222 -0.10684444444444444 0.5818666666666666 0.059288888888888884 0.7771555555555555 0.8626666666666667 3.077422222222222 3.6086222222222224 3.077422222222222 5.912355555555555 0 3.687111111111111 0.4605333333333333 6.212444444444444 -1.9024888888888887 6.212444444444444Zm4.755733333333333 0c2.3656 0 4.282933333333333 -2.4746666666666663 4.282933333333333 -6.160977777777777 0 -3.7673777777777775 -1.775111111111111 -5.470933333333333 -2.526133333333333 -6.023111111111111 -0.18044444444444444 -0.13244444444444442 -0.4318222222222222 -0.10684444444444444 -0.5818666666666666 0.059288888888888884 -0.7771555555555555 0.8626666666666667 -3.077422222222222 3.6086222222222224 -3.077422222222222 5.912355555555555 0 3.687111111111111 -0.4605333333333333 6.212444444444444 1.9024888888888887 6.212444444444444Z" stroke-width="0.8889"></path>
  <path fill="#f4abba" d="M16 17.859288888888887c-4.509688888888889 -4.579555555555555 -2.8976888888888888 -5.681244444444444 -12.468444444444444 -8.913066666666667 -0.21546666666666667 -0.07306666666666665 -0.4509333333333333 0.031733333333333336 -0.5408000000000001 0.24079999999999996 -1.5735999999999999 3.677511111111111 -1.1941333333333333 6.4191111111111105 3.664444444444444 7.758044444444444 -1.8675555555555554 -0.012177777777777777 -3.8319111111111113 0.21724444444444443 -5.942844444444444 0.4291555555555555 -0.24044444444444446 0.024355555555555554 -0.4152888888888889 0.23946666666666663 -0.3899555555555555 0.47982222222222215 0.28355555555555556 2.7032 3.155111111111111 6.586577777777777 9.781866666666666 4.4669333333333325 -0.1367111111111111 0.3 -0.20835555555555554 0.625511111111111 -0.2102222222222222 0.9551999999999999 0 2.3402666666666665 4.504444444444444 3.6845333333333334 5.774488888888889 4.0168 0.2174222222222222 0.055911111111111106 0.4455111111111111 0.055911111111111106 0.6629333333333333 0 1.2700444444444445 -0.33226666666666665 5.774577777777778 -1.6765333333333334 5.774577777777778 -4.0168 0 -0.3376 -0.07768888888888889 -0.6551111111111111 -0.2102222222222222 -0.9543111111111111 6.625866666666667 2.119644444444444 9.497422222222221 -1.7637333333333332 9.781777777777778 -4.467022222222222 0.025333333333333333 -0.24026666666666663 -0.1495111111111111 -0.45546666666666663 -0.3899555555555555 -0.4797333333333333 -2.110933333333333 -0.2119111111111111 -4.0744 -0.4422222222222222 -5.942844444444444 -0.4291555555555555 4.858666666666666 -1.3389333333333333 5.237155555555555 -4.080533333333333 3.664444444444444 -7.758133333333333 -0.08951111111111111 -0.20933333333333332 -0.32506666666666667 -0.31457777777777773 -0.5408000000000001 -0.24159999999999998C18.89777777777778 12.177155555555554 20.50968888888889 13.279733333333333 16 17.859288888888887Z" stroke-width="0.8889"></path>
  <path fill="#ea596e" d="M23.8288 6.8640888888888885c-0.19564444444444443 -0.2878222222222222 -0.6208888888888888 -0.28462222222222217 -0.8120888888888889 0.006133333333333333l-2.8428444444444443 4.3273777777777775 -0.37155555555555553 -0.0008888888888888888c0 -0.019999999999999997 0.004355555555555555 -0.0384 0.004355555555555555 -0.058399999999999994 0 -3.2073777777777774 -2.775644444444444 -5.057511111111111 -3.5859555555555556 -5.529422222222222 -0.13573333333333332 -0.07857777777777777 -0.3031111111111111 -0.07857777777777777 -0.4387555555555555 0 -0.8103999999999999 0.4719111111111111 -3.587733333333333 2.3220444444444444 -3.587733333333333 5.529422222222222 0 0.019999999999999997 0.004355555555555555 0.0384 0.004355555555555555 0.058399999999999994l-0.37155555555555553 0.0008888888888888888 -2.843644444444444 -4.3273777777777775c-0.19155555555555553 -0.29048888888888885 -0.6167999999999999 -0.2932444444444445 -0.8120888888888889 -0.005244444444444444 -1.2360888888888888 1.8195555555555556 -2.1266666666666665 4.076177777777778 -1.6224888888888886 6.517688888888888 0.9577777777777776 4.6432 5.1168 6.929422222222222 9.452977777777777 5.904533333333333 4.333511111111111 1.024888888888889 8.492533333333332 -1.2604444444444443 9.45031111111111 -5.904533333333333 0.5032888888888889 -2.4423999999999997 -0.38728888888888885 -4.699022222222222 -1.6232888888888888 -6.518577777777778Z" stroke-width="0.8889"></path>
  <path fill="#f4900c" d="m13.50702222222222 18.334666666666667 -2.2653333333333334 -6.6608h9.516622222222223l-2.2653333333333334 6.6608Z" stroke-width="0.8889"></path>
  <path fill="#ffdc5d" d="M11.24168888888889 11.673866666666667c-0.004977777777777777 1.0985777777777777 3.9571555555555555 1.7867555555555554 7.1318222222222225 1.2387555555555554 1.477422222222222 -0.25493333333333335 2.387111111111111 -0.7275555555555555 2.3848 -1.2387555555555554 0.004977777777777777 -1.0985777777777777 -3.9571555555555555 -1.7867555555555554 -7.1318222222222225 -1.2387555555555554 -1.477422222222222 0.2550222222222222 -2.387111111111111 0.7275555555555555 -2.3848 1.2387555555555554" stroke-width="0.8889"></path>
  <path fill="#ea596e" d="M16.000888888888888 22.061955555555556c-2.103111111111111 0 -3.8075555555555556 -2.014133333333333 -3.8075555555555556 -5.0139555555555555 0 -3.312 2.7625777777777776 -5.226666666666667 3.5816 -5.720444444444444 0.1390222222222222 -0.08364444444444444 0.3128888888888888 -0.08364444444444444 0.4518222222222222 0 0.8182222222222222 0.4945777777777778 3.579911111111111 2.408444444444444 3.579911111111111 5.721333333333333 0 2.9989333333333335 -1.7044444444444444 5.013066666666667 -3.8057777777777777 5.013066666666667Z" stroke-width="0.8889"></path>
  <path fill="#ef8294" d="M28.211999999999996 12.219022222222222c0.0006222222222222221 -0.2828444444444444 -0.26266666666666666 -0.4923555555555555 -0.5382222222222223 -0.42826666666666663 -2.3289777777777774 0.5617777777777777 -11.643288888888888 3.2448888888888887 -11.672888888888888 10.238044444444443 -0.030577777777777777 -6.993155555555555 -9.3448 -9.676266666666665 -11.673777777777776 -10.238044444444443 -0.2765333333333333 -0.0679111111111111 -0.5427555555555555 0.14355555555555555 -0.5391111111111111 0.42826666666666663 0.01831111111111111 2.138044444444444 0.8713777777777777 9.841155555555556 12.210222222222221 9.842933333333333h0.0035555555555555553c11.338844444444444 -0.0017777777777777776 12.19191111111111 -7.704888888888888 12.210222222222221 -9.842933333333333Z" stroke-width="0.8889"></path>
</svg>